<svg width="1200" height="657" fill="none" xmlns="http://www.w3.org/2000/svg"><g clip-path="url(#a)" fill="#2A8086"><path d="m-31.488-179-20.008 588.027-7.627 113.159c-1.556 23.097 16.76 42.69 39.91 42.69H87.272c4.931 0 9.82-.912 14.418-2.689l190.552-73.634a40.003 40.003 0 0 1 14.418-2.689h301.299c8.39 0 16.567 2.638 23.375 7.541l91.08 65.592a40.004 40.004 0 0 0 18.137 7.196l478.979 63.272c25.38 3.353 47.33-17.668 45.09-43.17l-63.15-715.782L-31.488-179Z"/><path opacity=".3" d="m-31.5-153-20 588.214-7.625 113.211c-1.556 23.097 16.76 42.688 39.91 42.688H87.209c4.933 0 9.825-.913 14.426-2.693l190.467-73.652a40.011 40.011 0 0 1 14.427-2.692h301.166a39.999 39.999 0 0 1 23.386 7.549l90.861 65.479a40 40 0 0 0 18.539 7.254l480.509 58.659c25.24 3.082 46.92-17.868 44.69-43.202L1201-129.331-31.5-153Z"/></g><defs><clipPath id="a"><path fill="#fff" transform="translate(-62)" d="M0 0h1332v657H0z"/></clipPath></defs></svg>