<svg width="1332" height="938" viewBox="0 0 1332 938" fill="none" xmlns="http://www.w3.org/2000/svg">
<g clip-path="url(#clip0_815_2463)">
<path d="M-113.5 -105.5L-206.483 801.798C-208.899 825.378 -190.395 845.876 -166.691 845.876H0H149.272C154.203 845.876 159.091 844.964 163.69 843.187L354.242 769.553C358.841 767.776 363.729 766.864 368.66 766.864H669.959C678.349 766.864 686.526 769.502 693.334 774.405L784.414 839.997C789.773 843.856 796.004 846.328 802.551 847.193L1290.14 911.602C1312.5 914.557 1332.89 898.44 1335.17 875.995L1431 -66L-113.5 -105.5Z" fill="#2A8086"/>
<path opacity="0.3" d="M-110 -112L-30.5 634L-4.47266 837.195C-1.91552 857.158 15.0766 872.113 35.2032 872.113H149.209C154.143 872.113 159.034 871.2 163.635 869.42L354.102 795.768C358.704 793.989 363.595 793.076 368.529 793.076H669.695C678.089 793.076 686.271 795.717 693.081 800.625L783.942 866.104C789.412 870.046 795.789 872.541 802.481 873.358L1289.71 932.837C1312.62 935.634 1333.14 918.509 1334.48 895.464L1394.5 -132L-110 -112Z" fill="#2A8086"/>
</g>
<defs>
<clipPath id="clip0_815_2463">
<rect width="1332" height="938" fill="white"/>
</clipPath>
</defs>
</svg>
