<svg width="640" height="291" viewBox="0 0 640 291" fill="none" xmlns="http://www.w3.org/2000/svg">
<path d="M-54.808 79.7306L-119.231 142.149C-123.558 146.341 -126 152.108 -126 158.133V224.142C-126 236.434 -116.036 246.398 -103.744 246.398H-64.9772H122.435H288.678H416.618C419.142 246.398 421.647 246.828 424.027 247.668L495.888 273.038C498.268 273.879 500.773 274.308 503.297 274.308H606.968C609.265 274.308 611.548 273.952 613.736 273.254L748.594 230.204C750.782 229.505 753.065 229.15 755.362 229.15H896.673H952.74C960.433 229.15 967.58 225.177 971.642 218.644L991.246 187.107C993.438 183.58 994.6 179.51 994.6 175.357V103.636C994.6 91.344 984.636 81.3795 972.344 81.3795H964.497C959.728 81.3795 955.086 79.8481 951.254 77.0108L876.242 21.4756C872.067 18.3844 866.942 16.8512 861.755 17.1416L760.621 22.8044C755.013 23.1184 749.731 25.5415 745.834 29.5876L682.183 95.6839C677.988 100.04 672.2 102.502 666.152 102.502H617.479C612.894 102.502 608.422 101.086 604.672 98.4482L552.399 61.6706C548.65 59.0326 544.177 57.6168 539.593 57.6168H428.39C423.244 57.6168 418.257 59.4003 414.277 62.6638L336.438 126.498C332.459 129.762 327.471 131.545 322.325 131.545H222.575C217.77 131.545 213.093 129.99 209.245 127.112L143.435 77.892C139.587 75.0139 134.911 73.4586 130.105 73.4586H-39.3212C-45.1021 73.4586 -50.6562 75.708 -54.808 79.7306Z" fill="#2A8086"/>
<path d="M-54.808 96.4228L-119.231 158.841C-123.558 163.033 -126 168.8 -126 174.825V240.834C-126 253.126 -116.036 263.091 -103.744 263.091H-64.9772H122.435H288.678H416.618C419.142 263.091 421.647 263.52 424.027 264.36L495.888 289.73C498.268 290.571 500.773 291 503.297 291H606.968C609.265 291 611.548 290.644 613.736 289.946L748.594 246.896C750.782 246.198 753.065 245.842 755.362 245.842H896.673H953.603C961.431 245.842 968.684 241.729 972.703 235.011L991.444 203.68C993.51 200.227 994.6 196.278 994.6 192.255V120.328C994.6 108.036 984.636 98.0717 972.344 98.0717H964.497C959.728 98.0717 955.086 96.5403 951.254 93.7029L876.242 38.1677C872.067 35.0765 866.942 33.5433 861.755 33.8338L760.621 39.4965C755.013 39.8106 749.731 42.2337 745.834 46.2798L682.183 112.376C677.988 116.733 672.2 119.194 666.152 119.194H617.479C612.894 119.194 608.422 117.778 604.672 115.14L552.399 78.3628C548.65 75.7248 544.177 74.309 539.593 74.309H428.39C423.244 74.309 418.257 76.0925 414.277 79.3559L336.438 143.191C332.459 146.454 327.471 148.237 322.325 148.237H222.575C217.77 148.237 213.093 146.682 209.245 143.804L143.435 94.5842C139.587 91.7061 134.911 90.1508 130.105 90.1508H-39.3212C-45.1021 90.1508 -50.6562 92.4002 -54.808 96.4228Z" fill="#2A808D" fill-opacity="0.3"/>
<path d="M-54.6818 58.4132L-118.628 115.935C-123.32 120.156 -126 126.171 -126 132.482V191.01C-126 203.302 -116.036 213.266 -103.744 213.266H-69.3581C-66.4653 213.266 -63.6002 212.702 -60.9231 211.606L44.693 168.351C47.37 167.255 50.2351 166.691 53.128 166.691H220.132C225.012 166.691 229.756 168.294 233.635 171.255L282.697 208.702C286.576 211.662 291.321 213.266 296.201 213.266H414.362C418.336 213.266 422.237 214.33 425.66 216.347L494.255 256.761C497.678 258.778 501.579 259.841 505.552 259.841H606.012C608.932 259.841 611.822 259.267 614.52 258.151L675.617 232.877L749.169 213.967C750.98 213.501 752.842 213.266 754.711 213.266H862.87C867.371 213.266 871.767 211.901 875.477 209.351L951.459 157.123C955.168 154.573 959.564 153.208 964.066 153.208H972.344C984.636 153.208 994.6 143.244 994.6 130.952V82.3139C994.6 70.0221 984.636 60.0577 972.344 60.0577H964.066C959.564 60.0577 955.168 58.6926 951.459 56.1426L876.003 4.277C871.968 1.5033 867.131 0.137777 862.241 0.391987L760.201 5.69659C754.845 5.97502 749.77 8.178 745.909 11.9003L682.083 73.4346C677.935 77.4337 672.398 79.6683 666.636 79.6683H617.059C612.736 79.6683 608.507 78.4094 604.888 76.0453L552.184 41.6187C548.565 39.2546 544.335 37.9957 540.013 37.9957H427.94C423.069 37.9957 418.333 39.5935 414.457 42.5442L336.258 102.084C332.383 105.035 327.646 106.633 322.776 106.633H222.142C217.605 106.633 213.175 105.246 209.448 102.658L143.232 56.6787C139.505 54.0907 135.076 52.7037 130.538 52.7037H-39.7974C-45.2936 52.7037 -50.5955 54.7374 -54.6818 58.4132Z" fill="#2A808D" fill-opacity="0.3"/>
<path d="M487.998 186.118C488.688 175.911 479.604 160.798 476.591 160.245C476.591 160.245 459.899 186.118 452.109 201.697C452.354 204.114 453.368 205.392 453.222 207.817C453.072 210.321 450.076 211.735 451.275 213.938C452.59 216.354 458.23 215.051 458.23 215.051C466.019 213.66 466.576 202.253 467.41 201.975C468.802 203.923 470.272 210.043 469.636 212.269C469.08 214.216 467.334 215.18 467.967 216.998C468.671 219.022 470.749 219.78 472.696 219.78C477.426 220.058 481.321 216.442 483.825 213.103C488.554 205.87 488.554 193.351 487.998 186.118Z" fill="#0A5D69"/>
<rect x="416.496" y="151.342" width="68.4379" height="51.1893" rx="25.5946" fill="#F3F6F7"/>
<path d="M442.883 201.697C448.169 186.118 444.831 159.41 432.312 153.568C427.674 153.755 420.627 158.019 420.627 158.019C420.627 158.019 404.505 177.449 402.822 192.516C403.1 198.359 406.439 207.817 405.326 215.885C403.935 217.215 403.657 217.554 402.822 218.946C401.709 221.171 404.769 222.562 406.995 222.562C409.777 222.562 413.325 221.538 416.176 218.946C419.864 215.592 419.514 211.156 420.627 206.983C422.574 209.487 422.296 218.946 420.905 221.171C418.958 224.51 419.236 225.622 420.627 227.013C424.522 229.146 432.033 227.013 435.372 222.562C440.101 215.051 440.499 210.321 442.883 201.697Z" fill="#0A5D69"/>
<circle cx="401.75" cy="152.733" r="7.51147" fill="#0A5D69"/>
<circle cx="424.562" cy="149.395" r="7.51147" fill="#0A5D69"/>
<rect x="394.238" y="146.891" width="43.956" height="39.5048" rx="19.7524" fill="#F3F6F7"/>
<ellipse cx="424.634" cy="163.362" rx="4.92901" ry="6.4558" transform="rotate(-31.8762 424.634 163.362)" fill="#0A5D69"/>
<ellipse cx="4.92901" cy="6.4558" rx="4.92901" ry="6.4558" transform="matrix(-0.978754 -0.205037 -0.205037 0.978754 412.098 163.379)" fill="#0A5D69"/>
<path d="M412.879 173.598C413.287 175.668 417.052 176.659 417.609 176.659C418.165 176.659 421.773 173.537 420.669 171.373C419.556 169.425 412.601 171.095 412.879 173.598Z" fill="#0A5D69"/>
<ellipse cx="407.313" cy="167.478" rx="1.39101" ry="1.66922" fill="#F3F6F7"/>
<ellipse cx="422.336" cy="163.027" rx="1.39101" ry="1.66922" fill="#F3F6F7"/>
<path d="M455.545 96.2581H449.703L452.207 120.74L452.763 140.214H459.44L456.658 120.74L455.545 96.2581Z" fill="#216E7A"/>
<path d="M458.627 143.553H453.933C453.603 143.553 453.346 143.838 453.379 144.166L455.82 168.034L456.361 186.968C456.37 187.269 456.616 187.509 456.917 187.509H462.412C462.751 187.509 463.011 187.209 462.963 186.873L460.271 168.034L459.183 144.084C459.169 143.787 458.924 143.553 458.627 143.553Z" fill="#216E7A"/>
<path d="M469.999 160.245L464.644 160.245C464.316 160.245 464.06 160.526 464.09 160.852L465.243 173.516L465.243 184.942C465.243 185.273 465.53 185.53 465.859 185.495L471.565 184.886C471.882 184.852 472.106 184.559 472.055 184.244L470.297 173.37C470.291 173.337 470.289 173.303 470.29 173.27L470.555 160.813C470.561 160.501 470.31 160.245 469.999 160.245Z" fill="#216E7A"/>
<path d="M462.244 190.847H457.55C457.22 190.847 456.963 191.132 456.996 191.46L459.433 215.283C459.436 215.313 459.436 215.344 459.434 215.375L458.919 223.361C458.899 223.682 459.153 223.953 459.474 223.953H464.883C465.233 223.953 465.496 223.634 465.43 223.291L463.896 215.369C463.891 215.342 463.888 215.315 463.887 215.288L462.8 191.378C462.786 191.081 462.542 190.847 462.244 190.847Z" fill="#216E7A"/>
<path d="M446.475 201.078C449.713 199.147 454.353 192.68 454.691 187.786C454.712 187.479 454.465 187.287 454.208 187.456C452.189 188.781 445.951 195.67 445.785 200.671C445.772 201.044 446.155 201.269 446.475 201.078Z" fill="#216E7A"/>
<path d="M444.315 182.601C445.506 186.053 450.113 186.625 453.322 186.484C453.529 186.475 453.731 186.344 453.72 186.137C453.637 184.506 448.314 182.252 444.816 181.973C444.466 181.945 444.201 182.269 444.315 182.601Z" fill="#216E7A"/>
<path d="M462.388 153.287C466.425 152.42 473.286 147.433 474.906 142.745C475.006 142.454 474.819 142.194 474.522 142.27C472.04 142.91 463.257 147.862 461.842 152.709C461.742 153.055 462.036 153.363 462.388 153.287Z" fill="#216E7A"/>
<path d="M518.114 168.201C515.68 171.536 508.333 175.775 503.391 175.347C503.085 175.32 502.923 175.044 503.114 174.803C504.708 172.796 512.805 166.788 517.808 167.468C518.165 167.516 518.327 167.91 518.114 168.201Z" fill="#216E7A"/>
<path d="M525.142 110.126C520.8 114.029 509.113 117.599 502.792 115.162C502.506 115.052 502.409 114.735 502.641 114.533C505.114 112.387 518.761 106.379 525.029 109.326C525.349 109.476 525.405 109.89 525.142 110.126Z" fill="#216E7A"/>
<path d="M507.144 97.521C507.429 102.088 504.184 110.794 499.773 113.602C499.513 113.767 499.209 113.651 499.201 113.344C499.125 110.598 501.799 99.7205 506.453 97.1336C506.761 96.9622 507.122 97.1689 507.144 97.521Z" fill="#216E7A"/>
<path d="M515.384 127.922C513.3 123.518 506.421 117.298 501.723 117.266C501.416 117.264 501.218 117.532 501.358 117.805C502.658 120.35 510.264 128.949 515.017 128.593C515.349 128.568 515.526 128.222 515.384 127.922Z" fill="#216E7A"/>
<path d="M482.118 95.4803L476.285 95.1453L477.381 119.73L476.82 139.204L483.486 139.587L481.825 119.986L482.118 95.4803Z" fill="#216E7A"/>
<path d="M499.191 79.9536L493.426 79.0095L491.941 103.574L489.343 122.882L495.932 123.961L496.333 104.293L499.191 79.9536Z" fill="#216E7A"/>
<path d="M505.834 131.606L498.301 130.199L496.271 154.742L492.805 173.92L501.415 175.528L502.01 155.814L505.834 131.606Z" fill="#216E7A"/>
<path d="M482.485 142.874L477.799 142.605C477.47 142.586 477.196 142.856 477.211 143.185L478.279 167.154L477.734 186.088C477.725 186.389 477.957 186.642 478.258 186.66L483.744 186.975C484.082 186.994 484.358 186.71 484.33 186.372L482.723 167.41L483.01 143.436C483.013 143.139 482.782 142.891 482.485 142.874Z" fill="#216E7A"/>
<path d="M494.596 127.125L489.964 126.366C489.638 126.313 489.338 126.553 489.318 126.882L487.87 150.832L485.345 169.604C485.305 169.902 485.509 170.178 485.806 170.227L491.229 171.115C491.563 171.17 491.868 170.916 491.875 170.577L492.263 151.551L495.059 127.739C495.094 127.444 494.89 127.173 494.596 127.125Z" fill="#216E7A"/>
<path d="M499.823 178.629L493.43 177.435C493.099 177.373 492.78 177.615 492.752 177.949L490.775 201.861L487.355 222.073C487.302 222.386 487.523 222.671 487.841 222.7L495.005 223.343C495.328 223.372 495.616 223.122 495.631 222.8L496.514 202.934L500.256 179.242C500.302 178.952 500.112 178.683 499.823 178.629Z" fill="#216E7A"/>
<path d="M483.392 190.298L478.696 190.029C478.368 190.01 478.094 190.279 478.109 190.608L478.91 209.168C478.911 209.195 478.91 209.222 478.908 209.249L477.577 222.284C477.546 222.591 477.77 222.865 478.077 222.895L485.205 223.593C485.561 223.628 485.857 223.322 485.811 222.967L483.966 208.833L483.916 190.852C483.915 190.558 483.685 190.315 483.392 190.298Z" fill="#216E7A"/>
<path d="M467.97 127.006C466.502 131.365 471.059 136.162 474.577 138.937C474.736 139.062 474.966 139.099 475.099 138.947C476.41 137.456 472.322 130.225 468.776 126.822C468.513 126.57 468.087 126.661 467.97 127.006Z" fill="#216E7A"/>
<path d="M511.518 189.757C507.298 189.463 504.537 183.758 503.205 179.67C503.143 179.479 503.187 179.251 503.377 179.187C505.099 178.609 510.098 184.735 511.981 189.073C512.128 189.412 511.887 189.783 511.518 189.757Z" fill="#216E7A"/>
<path d="M471.311 187.764L465.956 187.764C465.629 187.764 465.372 188.045 465.402 188.371L466.556 201.035L466.556 223.056C466.556 223.387 466.843 223.644 467.171 223.609L472.92 222.995C473.221 222.963 473.441 222.696 473.415 222.395L471.601 200.839L471.867 188.332C471.874 188.02 471.623 187.764 471.311 187.764Z" fill="#216E7A"/>
<circle cx="65.9959" cy="96.9335" r="36.203" fill="#216E7A"/>
<circle cx="65.9959" cy="71.8129" r="36.203" fill="#216E7A"/>
<rect x="60.1016" y="97.9127" width="8.41929" height="65.6705" rx="4.20965" fill="#1D6874"/>
<circle cx="249.96" cy="111.121" r="24.8699" fill="#216E7A"/>
<circle cx="249.96" cy="93.8641" r="24.8699" fill="#216E7A"/>
<rect x="245.91" y="111.794" width="5.78369" height="45.1128" rx="2.89184" fill="#1D6874"/>
</svg>
