<svg width="20" height="20" viewBox="0 0 20 20" fill="none" xmlns="http://www.w3.org/2000/svg">
<path d="M16.2608 10.4862L10.0108 16.6762L3.76083 10.4862C3.34859 10.0851 3.02387 9.60289 2.80712 9.07008C2.59037 8.53726 2.4863 7.96534 2.50144 7.39032C2.51659 6.81531 2.65063 6.24966 2.89513 5.72899C3.13962 5.20833 3.48928 4.74393 3.92207 4.36503C4.35486 3.98613 4.86142 3.70095 5.40984 3.52745C5.95826 3.35394 6.53667 3.29587 7.10864 3.35688C7.68061 3.4179 8.23375 3.59668 8.73323 3.88197C9.23271 4.16726 9.6677 4.55288 10.0108 5.01455C10.3554 4.55623 10.7909 4.17398 11.2901 3.89172C11.7892 3.60945 12.3412 3.43325 12.9116 3.37415C13.482 3.31504 14.0584 3.3743 14.6048 3.54821C15.1512 3.72212 15.6559 4.00694 16.0871 4.38485C16.5184 4.76276 16.867 5.22562 17.1112 5.74446C17.3553 6.2633 17.4898 6.82695 17.5061 7.40014C17.5224 7.97332 17.4202 8.54371 17.2059 9.07559C16.9917 9.60747 16.6699 10.0894 16.2608 10.4912" stroke="#19707D" stroke-linecap="round" stroke-linejoin="round"/>
</svg>
