<svg width="50" height="38" fill="none" xmlns="http://www.w3.org/2000/svg"><path fill-rule="evenodd" clip-rule="evenodd" d="M13.458 26.534v-4.03h7.1c.148 0 .294.01.439.02l.05.003-1.026 1.992h-4.534v2.015c0 2.778 2.275 5.038 5.071 5.038h5.072v-2.015c0-2.203-1.44-4.059-3.425-4.74l-1.122-2.288c3.67.27 6.576 3.316 6.576 7.028v2.015c0 1.111-.91 2.015-2.03 2.015h-5.07c-3.915 0-7.101-3.165-7.101-7.053Zm24.833-4.005a.812.812 0 0 1 .018-.025l.018.023a8.63 8.63 0 0 0 .05-.003c.146-.01.291-.02.44-.02h7.1v4.03c0 3.888-3.187 7.053-7.1 7.053h-5.072a2.024 2.024 0 0 1-2.03-2.015v-2.015c0-3.712 2.906-6.758 6.576-7.027Zm5.597 1.99h-4.535c.266.72.477 1.587.477 2.519 0 2.504-1.521 4.534-1.521 4.534s-1.522-2.03-1.522-4.534c0-.812.167-1.563.383-2.222-1.986.682-3.425 2.538-3.425 4.74v2.016h5.071c2.797 0 5.072-2.26 5.072-5.038V24.52Z" fill="#C5E1E6"/><path d="M21.083 22.53a.982.982 0 0 0-.018-.026l-.017.023-1.027 1.992c-.265.72-.477 1.587-.477 2.519 0 2.504 1.521 4.534 1.521 4.534s1.522-2.03 1.522-4.534c0-.812-.166-1.563-.382-2.222l-1.122-2.287Z" fill="#C5E1E6"/><path d="M4.687 15.158c-1.235 0-2.19-.316-2.866-.95-.676-.644-1.04-1.52-1.093-2.628l-.015-.697.015-.696c.053-1.098.423-1.969 1.109-2.613.686-.644 1.636-.966 2.85-.966 1.214 0 2.164.322 2.85.966.686.644 1.055 1.515 1.108 2.613.01.126.016.359.016.696 0 .338-.005.57-.016.697-.053 1.108-.417 1.984-1.092 2.628-.676.634-1.631.95-2.866.95Zm0-1.567c.56 0 .992-.174 1.298-.523.306-.359.475-.881.507-1.567.01-.106.016-.312.016-.618s-.006-.512-.016-.617c-.032-.686-.2-1.204-.507-1.552-.306-.359-.739-.538-1.298-.538-.56 0-.993.18-1.299.538-.306.348-.475.866-.506 1.552l-.016.617.016.618c.031.686.2 1.208.506 1.567.306.349.74.523 1.299.523ZM10.795 15a.366.366 0 0 1-.269-.11.366.366 0 0 1-.11-.27V7.147c0-.106.036-.196.11-.27a.366.366 0 0 1 .27-.11h1.298c.105 0 .195.037.269.11.074.074.11.164.11.27v.649c.623-.792 1.505-1.188 2.645-1.188.97 0 1.741.322 2.311.966.57.633.855 1.5.855 2.597v4.449a.367.367 0 0 1-.11.27.335.335 0 0 1-.27.11h-1.393a.366.366 0 0 1-.27-.11.366.366 0 0 1-.11-.27v-4.354c0-.623-.153-1.103-.46-1.441-.295-.348-.727-.522-1.297-.522-.56 0-1.003.174-1.33.522-.317.348-.476.829-.476 1.44v4.355a.366.366 0 0 1-.11.27.335.335 0 0 1-.27.11h-1.393Zm9.896 0a.366.366 0 0 1-.269-.11.366.366 0 0 1-.11-.27V4.138c0-.116.036-.205.11-.269a.366.366 0 0 1 .27-.11h1.314c.116 0 .205.036.269.11.074.063.11.153.11.27V14.62a.367.367 0 0 1-.11.27.335.335 0 0 1-.27.11h-1.314Zm4.111-9.595a.366.366 0 0 1-.269-.11.366.366 0 0 1-.11-.27v-1.14c0-.106.036-.195.11-.27a.366.366 0 0 1 .27-.11h1.44c.106 0 .196.037.27.11a.345.345 0 0 1 .126.27v1.14a.367.367 0 0 1-.11.27.386.386 0 0 1-.286.11h-1.44ZM24.866 15a.366.366 0 0 1-.27-.11.366.366 0 0 1-.11-.27V7.147c0-.106.037-.196.11-.27a.366.366 0 0 1 .27-.11h1.314c.116 0 .206.037.27.11.073.064.11.154.11.27v7.473a.366.366 0 0 1-.11.27.335.335 0 0 1-.27.11h-1.314Zm4.175 0a.366.366 0 0 1-.27-.11.366.366 0 0 1-.11-.27V7.147c0-.106.037-.196.11-.27a.366.366 0 0 1 .27-.11h1.298c.105 0 .195.037.27.11.073.074.11.164.11.27v.649c.623-.792 1.504-1.188 2.644-1.188.971 0 1.742.322 2.312.966.57.633.855 1.5.855 2.597v4.449a.366.366 0 0 1-.111.27.335.335 0 0 1-.27.11h-1.393a.366.366 0 0 1-.269-.11.366.366 0 0 1-.11-.27v-4.354c0-.623-.154-1.103-.46-1.441-.295-.348-.728-.522-1.298-.522-.56 0-1.003.174-1.33.522-.317.348-.475.829-.475 1.44v4.355a.367.367 0 0 1-.11.27.335.335 0 0 1-.27.11H29.04Zm13.047.158c-1.172 0-2.106-.337-2.803-1.013-.686-.686-1.05-1.647-1.092-2.882l-.016-.396.016-.395c.052-1.204.422-2.148 1.108-2.834.697-.687 1.625-1.03 2.787-1.03 1.245 0 2.206.38 2.881 1.14.686.76 1.03 1.774 1.03 3.04v.333a.366.366 0 0 1-.111.269.386.386 0 0 1-.285.11h-5.257v.127c.021.581.18 1.072.475 1.473.306.39.723.586 1.25.586.623 0 1.125-.243 1.505-.729.095-.116.169-.19.222-.221a.616.616 0 0 1 .269-.048h1.361c.095 0 .175.032.238.095.074.053.11.122.11.206 0 .253-.152.554-.458.903-.296.337-.724.633-1.283.886-.56.254-1.208.38-1.947.38Zm1.757-4.987v-.048c0-.622-.158-1.124-.475-1.504-.306-.38-.733-.57-1.282-.57-.55 0-.977.19-1.283.57-.306.38-.46.882-.46 1.504v.048h3.5ZM.998 34a.386.386 0 0 1-.285-.11.423.423 0 0 1-.095-.286v-1.108c0-.18.036-.317.11-.412.074-.105.116-.163.127-.174l5.51-7.125h-5.21a.366.366 0 0 1-.268-.11.366.366 0 0 1-.111-.27v-1.093c0-.116.031-.21.095-.285a.386.386 0 0 1 .285-.11h7.568c.116 0 .211.037.285.11.074.074.111.17.111.285v1.093c0 .19-.069.375-.206.554l-5.399 7.157h5.383c.116 0 .211.037.285.11.074.075.111.17.111.286v1.108a.386.386 0 0 1-.11.285.423.423 0 0 1-.286.095h-7.9Z" fill="#0D444D"/></svg>