<svg width="320" height="531" fill="none" xmlns="http://www.w3.org/2000/svg"><path d="m-115.489-83-20.007 522.37-3.642 21.61c-4.113 24.403 14.697 46.648 39.444 46.648h624.857c7.64 0 15.12 2.188 21.556 6.305l92.105 58.924a40.003 40.003 0 0 0 16.895 6.033l479.901 56.316c25.37 2.976 46.99-18.263 44.47-43.68l-62.62-630.541L-115.489-83Z" fill="#2A8086"/><path opacity=".3" d="m-115.5-59-20 522.131-5.147 67.832c-2.354 31.026 30.06 52.742 57.857 38.762l67.81-34.103a40.002 40.002 0 0 1 17.972-4.264h521.915c7.64 0 15.119 2.187 21.555 6.304l91.908 58.793a39.991 39.991 0 0 0 17.245 6.071l481.425 52.169c25.24 2.735 46.61-18.436 44.12-43.703L1117-37.99-115.5-59Z" fill="#2A8086"/></svg>