<svg width="40" height="40" viewBox="0 0 40 40" fill="none" xmlns="http://www.w3.org/2000/svg">
<g clip-path="url(#clip0_840_2179)">
<path opacity="0.8" d="M5 18.125H8.75V30H5V18.125Z" fill="#216E7A"/>
<path d="M35.2669 23.0094C34.6812 22.5762 33.8994 22.45 33.12 22.6656L23.5644 25.3075C23.6819 25.0175 23.75 24.7019 23.75 24.3694C23.75 22.9938 22.6287 21.875 21.25 21.875H15.3894C14.9731 21.25 13.9131 19.375 12.5 19.375H10V18.75C10 17.7162 9.15875 16.875 8.125 16.875H5.625C4.59125 16.875 3.75 17.7162 3.75 18.75V29.375C3.75 30.4087 4.59125 31.25 5.625 31.25H8.125C9.15875 31.25 10 30.4094 10 29.375V28.905L17.5869 34.0312C18.5394 34.6763 19.6481 35 20.7588 35C21.785 35 22.8131 34.7237 23.7225 34.1681L35.0806 27.23C35.8019 26.7906 36.25 25.9919 36.25 25.1469V24.9513C36.25 24.1819 35.8919 23.4744 35.2669 23.0094ZM8.75 29.375C8.75 29.72 8.46938 30 8.125 30H7.5V27.5H6.25V30H5.625C5.28062 30 5 29.72 5 29.375V18.75C5 18.405 5.28062 18.125 5.625 18.125H8.125C8.46938 18.125 8.75 18.4056 8.75 18.75V29.375ZM35 25.1469C35 25.5594 34.7813 25.9487 34.4294 26.1637L23.0713 33.1013C21.5931 34.0031 19.7156 33.9625 18.2875 32.9956L10 27.3969V20.625H12.5C13.1619 20.625 14.0431 21.8963 14.43 22.7556L14.5963 23.125H21.25C21.9394 23.125 22.5 23.6831 22.5 24.3688C22.5 25.0613 21.9394 25.625 21.25 25.625H15V26.875H21.25H22.5L33.4525 23.8706C33.8531 23.7594 34.2525 23.8125 34.5213 24.0138C34.8256 24.2394 35 24.5813 35 24.9513V25.1469Z" fill="#216E7A"/>
<path opacity="0.8" d="M24.0641 10.7708C23.585 10.7708 23.1256 10.9611 22.7869 11.2998C22.4481 11.6385 22.2578 12.098 22.2578 12.577C22.2578 13.0561 22.4481 13.5155 22.7869 13.8543C23.1256 14.193 23.585 14.3833 24.0641 14.3833C24.5431 14.3833 25.0026 14.193 25.3413 13.8543C25.6801 13.5155 25.8704 13.0561 25.8704 12.577C25.8704 12.098 25.6801 11.6385 25.3413 11.2998C25.0026 10.9611 24.5431 10.7708 24.0641 10.7708Z" fill="#216E7A"/>
<path d="M30.7477 6.6014C29.7533 5.78443 28.4537 5.52717 26.8765 5.83827C25.8958 6.0529 25.218 6.36364 24.7446 6.70185L24.4252 6.52696V5.35192C24.4252 5.26159 24.436 5.14344 24.4888 5.09104C24.5968 4.98373 24.9795 4.98734 25.3152 4.98951L26.9545 4.99096C28.3485 4.99096 29.4838 3.85639 29.4838 2.46238V0.654297H26.2315C25.3112 0.654297 24.5061 1.1504 24.0639 1.88751C23.6216 1.1504 22.8166 0.654297 21.8963 0.654297H18.644V2.46238C18.644 3.85639 19.7792 4.99096 21.1733 4.99096L22.8122 4.98987C23.1497 4.98734 23.5306 4.98409 23.639 5.09141C23.6913 5.1438 23.7025 5.26195 23.7025 5.35229V6.52732L23.3611 6.7163C22.8878 6.3799 22.2128 6.07205 21.2441 5.85959C19.6741 5.55065 18.3719 5.8072 17.3768 6.62452C15.4173 8.23568 15.3945 11.423 15.3945 11.5577C15.3945 14.3862 17.2778 17.3068 19.7749 18.3514C20.3671 18.5989 20.9521 18.7218 21.5162 18.7218C22.4401 18.7218 23.3091 18.393 24.0642 17.7462C25.2794 18.7857 26.7879 19.0025 28.3485 18.35C30.8485 17.3043 32.7339 14.3801 32.7339 11.548C32.7336 11.4128 32.7112 8.21545 30.7477 6.6014ZM26.2315 1.37695H28.7611V2.46238C28.7611 3.4582 27.9503 4.26866 26.9545 4.26866L25.3213 4.26758C25.0001 4.26649 24.6059 4.26469 24.4252 4.33551V4.26866C24.4252 3.67103 24.9112 3.18359 25.5088 3.18359H26.5932V2.46094H25.5088C25.1215 2.46094 24.7641 2.58596 24.4696 2.79444C24.6485 1.98543 25.3694 1.37695 26.2315 1.37695ZM22.9817 4.26686C22.9242 4.26686 22.8657 4.26722 22.8072 4.26758L21.1733 4.2683C20.1774 4.2683 19.3666 3.45784 19.3666 2.46202V1.37695H21.8963C22.7584 1.37695 23.4792 1.98543 23.6577 2.79444C23.3636 2.58596 23.0063 2.46094 22.6189 2.46094H21.5346V3.18359H22.6189C23.2166 3.18359 23.7025 3.67103 23.7025 4.2683V4.33406C23.3412 4.27553 23.239 4.26686 22.9817 4.26686ZM28.0696 17.6833C26.6842 18.2629 25.3516 18.0186 24.3175 16.9983L24.0639 16.7482L23.8102 16.9983C22.7739 18.0205 21.4403 18.2647 20.0531 17.6848C17.8458 16.7616 16.1165 14.07 16.1165 11.5574C16.1165 11.5277 16.1363 8.57895 17.8353 7.18241C18.4243 6.69823 19.1581 6.45542 20.0228 6.45542C20.361 6.45542 20.7191 6.49264 21.0967 6.56707C23.2621 7.04149 23.7025 7.98962 23.7025 8.39756V8.60352H24.4252V8.3495C24.4252 7.86388 24.934 7.00355 27.0239 6.54575C28.3713 6.27909 29.4683 6.48613 30.287 7.1582C31.9867 8.55257 32.0113 11.5187 32.0113 11.5483C32.0113 14.0643 30.2798 16.7591 28.0696 17.6833Z" fill="#216E7A"/>
</g>
<defs>
<clipPath id="clip0_840_2179">
<rect width="40" height="40" fill="white"/>
</clipPath>
</defs>
</svg>
