<svg width="640" height="405" fill="none" xmlns="http://www.w3.org/2000/svg"><path d="m-115.489-321-20.007 555.559-4.173 26.334c-3.849 24.285 14.919 46.261 39.507 46.261h624.708a40 40 0 0 1 22.501 6.929l91.555 62.293a39.99 39.99 0 0 0 17.548 6.621l479.44 59.836c25.37 3.167 47.16-17.954 44.78-43.41l-62.9-673.643L-115.489-321Z" fill="#2A8086"/><path opacity=".3" d="m-115.5-296-20 555.536-5.343 74.916c-2.239 31.408 31.008 52.969 58.771 38.113l66.73-35.706a40.005 40.005 0 0 1 18.871-4.732h520.757a40.002 40.002 0 0 1 22.506 6.933l91.346 62.172a40.001 40.001 0 0 0 17.925 6.669l480.967 55.453c25.24 2.91 46.76-18.14 44.41-43.437L1117-273.646-115.5-296Z" fill="#2A8086"/></svg>