<svg width="56" height="56" fill="none" xmlns="http://www.w3.org/2000/svg"><circle cx="28" cy="28" r="28" fill="#B9D5D9"/><path d="M28 18c-2.753 0-5 2.247-5 5s2.247 5 5 5 5-2.247 5-5-2.247-5-5-5Zm0 1.5c1.942 0 3.5 1.558 3.5 3.5s-1.558 3.5-3.5 3.5a3.489 3.489 0 0 1-3.5-3.5c0-1.942 1.558-3.5 3.5-3.5ZM21.99 30A2 2 0 0 0 20 31.99v.76c0 1.802 1.14 3.196 2.653 4.031C24.167 37.616 26.084 38 28 38c1.916 0 3.833-.384 5.347-1.219 1.29-.712 2.262-1.85 2.534-3.281H36v-1.51c0-1.09-.9-1.99-1.99-1.99H21.989Zm0 1.5h12.02c.28 0 .491.21.491.49V32H34.5v.75c0 1.198-.673 2.054-1.878 2.719C31.417 36.134 29.71 36.5 28 36.5c-1.71 0-3.417-.366-4.622-1.031-1.205-.665-1.878-1.521-1.878-2.719v-.76c0-.28.21-.49.49-.49Z" fill="#fff"/><path d="M28 18c-2.753 0-5 2.247-5 5s2.247 5 5 5 5-2.247 5-5-2.247-5-5-5Zm-6.01 12A2 2 0 0 0 20 31.99v.76c0 1.802 1.14 3.196 2.653 4.031C24.167 37.616 26.084 38 28 38c1.916 0 3.833-.384 5.347-1.219 1.29-.712 2.262-1.85 2.534-3.281H36v-1.51c0-1.09-.9-1.99-1.99-1.99H21.989Z" fill="#fff"/></svg>